<svg width="64" height="64" viewBox="0 0 64 64" fill="none" xmlns="http://www.w3.org/2000/svg">
<path d="M31.9845 64C49.5234 64 64 49.5164 64 32C64 14.4836 49.4925 0 31.9536 0C14.4456 0 0 14.4836 0 32C0 49.5164 14.4766 64 31.9845 64ZM16.3944 35.8994C15.0024 35.8994 13.9198 34.8162 13.9198 33.4236C13.9198 32.0309 15.0024 30.9478 16.3944 30.9478H29.5099V13.1838C29.5099 11.7911 30.5926 10.7079 31.9536 10.7079C33.3765 10.7079 34.4592 11.7911 34.4592 13.1838V33.4236C34.4592 34.8162 33.3765 35.8994 31.9536 35.8994H16.3944Z" fill="#4E6384"/>
</svg>
