<svg id="Capa_1" enable-background="new 0 0 512 512" viewBox="0 0 512 512" xmlns="http://www.w3.org/2000/svg"><path d="m421.823 369.012c8.284 0 15-6.716 15-15v-19.999c0-8.284-6.716-15-15-15s-15 6.716-15 15v19.999c0 8.284 6.716 15 15 15z"></path><path d="m421.823 449.006c8.284 0 15-6.716 15-15v-19.999c0-8.284-6.716-15-15-15s-15 6.716-15 15v19.999c0 8.284 6.716 15 15 15z"></path><path d="m225.252 319.013c-8.284 0-15 6.716-15 15v19.999c0 8.284 6.716 15 15 15s15-6.716 15-15v-19.999c0-8.284-6.716-15-15-15z"></path><path d="m301.752 334.013c0-8.284-6.716-15-15-15s-15 6.716-15 15v19.999c0 8.284 6.716 15 15 15s15-6.716 15-15z"></path><path d="m86.431 319.013c-8.284 0-15 6.716-15 15v19.999c0 8.284 6.716 15 15 15s15-6.716 15-15v-19.999c0-8.284-6.716-15-15-15z"></path><path d="m86.431 399.007c-8.284 0-15 6.716-15 15v19.999c0 8.284 6.716 15 15 15s15-6.716 15-15v-19.999c0-8.285-6.716-15-15-15z"></path><path d="m497 228.094c-10.691 0-11-13.464-11-14.999s.309-14.999 11-14.999c8.284 0 15-6.716 15-15s-6.716-15-15-15h-72.974l-153.024-58.756v-19.334h75.003c5.532 0 10.615-3.045 13.226-7.922 2.61-4.877 2.323-10.796-.745-15.398l-14.452-21.677 14.452-21.677c3.068-4.603 3.355-10.521.745-15.398-2.61-4.878-7.693-7.922-13.226-7.922h-90.003c-8.284 0-15 6.716-15 15v59.996 34.334l-153.024 58.754h-72.978c-8.284 0-15 6.716-15 15s6.716 15 15 15c12.377 0 13.004 12.494 13.004 14.999s-.627 14.999-13.004 14.999c-8.284 0-15 6.716-15 15 0 .026.004.051.004.077v253.819c0 8.284 6.716 15 15 15h481.996c8.284 0 15-6.716 15-15v-253.896c0-8.285-6.716-15-15-15zm-183.475-174.765 4.452 6.677h-46.975v-29.996h46.974l-4.451 6.677c-3.36 5.039-3.36 11.603 0 16.642zm-57.523 82.387 84.33 32.38h-168.66zm-200.265 62.38h35.023 330.484 36.911c-1.416 4.744-2.155 9.809-2.155 14.999s.739 10.255 2.155 14.999h-402.418c1.489-4.743 2.267-9.806 2.267-14.999s-.777-10.256-2.267-14.999zm214.699 283.894h-29.999v-37.984c0-8.271 6.729-14.999 14.999-14.999 8.271 0 15 6.729 15 14.999zm-15-82.983c-24.813 0-44.999 20.187-44.999 44.999v37.984h-30v-223.896h149.998v223.896h-29.999v-37.984c0-24.813-20.187-44.999-45-44.999zm-225.432-140.913h120.433v223.896h-120.433zm451.996 223.896h-121.565v-223.896h121.565z"></path></svg>