<!-- icon666.com - MILLIONS vector ICONS FREE --><svg id="svg8" viewBox="0 0 6.3499999 6.3500002" xmlns="http://www.w3.org/2000/svg" xmlns:svg="http://www.w3.org/2000/svg"><g id="layer1" transform="translate(0 -290.65)"><path id="rect129" d="m3.1677641 291.44383a.26465303.26458443 0 0 0 -.109055.0274l-2.64884973 1.32434a.26465303.26458443 0 0 0 0 .47227l.38350176.19222v1.68811a.264653.26458441 0 0 0 .17159377.24751l2.1170125.79367a.264653.26458441 0 0 0 .1860652 0l2.1170124-.79367a.264653.26458441 0 0 0 .1715939-.24751v-1.68915l.3835018-.19118a.26465303.26458443 0 0 0 0-.47227l-2.6452318-1.32227a.26465303.26458443 0 0 0 -.1271448-.0295zm.00827.56063 2.0549905 1.02724-2.0648105 1.02723-2.0472378-1.02723zm1.8513522 1.71808v1.24219l-1.8523858.69446-1.8523858-.69446v-1.23909l1.7242073.86447a.26465303.26458443 0 0 0 .2361999.002z" font-variant-ligatures="normal" font-variant-position="normal" font-variant-caps="normal" font-variant-numeric="normal" font-variant-alternates="normal" font-feature-settings="normal" text-indent="0" text-align="start" text-decoration-line="none" text-decoration-style="solid" text-decoration-color="rgb(0,0,0)" text-transform="none" text-orientation="mixed" white-space="normal" shape-padding="0" isolation="auto" mix-blend-mode="normal" solid-color="rgb(0,0,0)" solid-opacity="1" vector-effect="none"></path></g></svg>