<!-- icon666.com - MILLIONS vector ICONS FREE --><svg xmlns="http://www.w3.org/2000/svg" xmlns:xlink="http://www.w3.org/1999/xlink" version="1.1" id="Capa_1" x="0px" y="0px" viewBox="0 0 512 512" style="enable-background:new 0 0 512 512;" xml:space="preserve"><g><path d="M76,90c8.284,0,15-6.716,15-15V30h45c8.284,0,15-6.716,15-15s-6.716-15-15-15H76c-8.284,0-15,6.716-15,15v60 C61,83.284,67.716,90,76,90z"></path><path d="M61,285c0,8.284,6.716,15,15,15h60c8.284,0,15-6.716,15-15s-6.716-15-15-15H91v-45c0-8.284-6.716-15-15-15s-15,6.716-15,15 V285z"></path><path d="M451,15c0-8.284-6.716-15-15-15h-60c-8.284,0-15,6.716-15,15s6.716,15,15,15h45v45c0,8.284,6.716,15,15,15s15-6.716,15-15 V15z"></path><path d="M436,210c-8.284,0-15,6.716-15,15v45h-45c-8.284,0-15,6.716-15,15s6.716,15,15,15h60c8.284,0,15-6.716,15-15v-60 C451,216.716,444.284,210,436,210z"></path><path d="M61,497c0,8.284,6.716,15,15,15h360c8.284,0,15-6.716,15-15v-31c0-86.035-65.64-157.643-150-165.32v-11.189 c32.45-15.431,54.848-46.438,59.219-81.792C378.086,201.734,391,184.847,391,165c0-19.556-12.539-36.239-30-42.43 c0-10.077,0-37.628,0-47.57c0-41.355-33.645-75-75-75h-60c-41.355,0-75,33.645-75,75c0,9.93,0,37.49,0,47.57 c-17.461,6.191-30,22.874-30,42.43c0,19.847,12.914,36.734,30.782,42.699c4.371,35.354,26.769,66.361,59.218,81.792v11.189 C126.765,308.346,61,379.818,61,466V497z M421,466v16H271v-63.509c34.192-6.968,60-37.271,60-73.491v-7.221 C383.38,356.491,421,406.898,421,466z M226,30h60c24.813,0,45,20.187,45,45v15h-8.787l-25.606-25.606 c-5.857-5.858-15.355-5.858-21.213,0L249.787,90H181V75C181,50.187,201.187,30,226,30z M226,330c8.284,0,15-6.716,15-15v-35.511 c0-6.347-3.995-12.007-9.976-14.133C201.104,254.718,181,226.445,181,195c0-8.284-6.716-15-15-15c-8.271,0-15-6.729-15-15 s6.729-15,15-15c8.284,0,15-6.716,15-15v-15h75c3.979,0,7.793-1.581,10.606-4.394L286,96.213l19.394,19.393 C308.206,118.419,312.021,120,316,120h15v15c0,8.284,6.716,15,15,15c8.271,0,15,6.729,15,15s-6.729,15-15,15 c-8.284,0-15,6.716-15,15c0,31.445-20.104,59.718-50.024,70.355c-5.98,2.126-9.976,7.786-9.976,14.133V315c0,8.284,6.716,15,15,15 c5.07,0,10.073,0.293,15,0.844V345c0,24.813-20.187,45-45,45c-24.813,0-45-20.187-45-45v-14.156 C215.927,330.293,220.93,330,226,330z M91,466c0-59.102,37.62-109.509,90-128.221V345c0,36.219,25.808,66.522,60,73.491V482H91V466 z"></path><path d="M301,195c0-8.284-6.716-15-15-15s-15,6.716-15,15c0,8.271-6.729,15-15,15s-15-6.729-15-15c0-8.284-6.716-15-15-15 s-15,6.716-15,15c0,24.813,20.187,45,45,45C280.813,240,301,219.813,301,195z"></path></g></svg>