<svg width="84" height="44" viewBox="0 0 84 44" fill="none" xmlns="http://www.w3.org/2000/svg">
<path d="M0 22.0168C0 9.7479 9.80395 0 22.0336 0C31.0964 0 39.1147 5.31092 42.4838 13.7143L75.13 13.7143C76.107 13.7143 76.9829 14.0168 77.7241 14.7563L83.3841 20.605C84.1253 21.3445 84.2938 22.7563 83.3504 23.6975L72.7379 34.2857C71.7609 35.2605 70.3459 35.2269 69.4026 34.2857L63.3719 28.2017L54.8145 36.7395C53.9049 37.6134 52.4899 37.6471 51.5129 36.6723L43.1576 28.3697C38.8789 38.4202 31.1638 44 22.0336 44C9.83764 44 0 34.2185 0 22.0168ZM20.4839 22.0168C20.4839 18.7563 17.8223 16.1008 14.5543 16.1008C11.2526 16.1008 8.62478 18.7227 8.62478 22.0168C8.62478 25.2773 11.2863 27.9328 14.5543 27.9328C17.8223 27.9328 20.4839 25.2773 20.4839 22.0168Z" fill="#4E6384"/>
</svg>
