<!-- icon666.com - MILLIONS vector ICONS FREE --><svg viewBox="0 0 64 64" xmlns="http://www.w3.org/2000/svg"><g id="Layer_25" data-name="Layer 25"><path d="m48 8h-4.35a6.00477 6.00477 0 0 0 -5.65-4h-12a6.00477 6.00477 0 0 0 -5.65 4h-4.35a5.00588 5.00588 0 0 0 -5 5v42a5.00588 5.00588 0 0 0 5 5h32a5.00588 5.00588 0 0 0 5-5v-42a5.00588 5.00588 0 0 0 -5-5zm-22 2h12l.00391 3h-12.00391zm21 44h-30v-40h3.09033a6.00448 6.00448 0 0 0 5.90967 5h12a6.00448 6.00448 0 0 0 5.90967-5h3.09033z"></path><path d="m31 31h-8c-3.964 0-3.969-6 0-6h8c3.964 0 3.969 6 0 6z"></path><path d="m41 40h-18c-3.964 0-3.969-6 0-6h18c3.964 0 3.969 6 0 6z"></path><path d="m41 49h-18c-3.964 0-3.969-6 0-6h18c3.964 0 3.969 6 0 6z"></path></g></svg>