<!-- icon666.com - MILLIONS vector ICONS FREE --><svg id="Layer_1" enable-background="new 0 0 26 26" viewBox="0 0 26 26" xmlns="http://www.w3.org/2000/svg"><g id="_x33_25"><path d="m15.9587669 1h-8.0400395c-.8600535 0-1.6824822.3044298-2.3828125.96875l-3.4238281 3.3842773c-.6085816.6085816-1.0136718 1.4510541-1.0136718 2.4169922v10.8603516c0 1.8911133 1.5390624 3.4296875 3.4306641 3.4296875h10.548584c.9472656 1.4136353 2.282959 2.4057007 4.0275879 2.9018555.1725159.0492897.3617764.0520821.5458984.0004883 4.6621094-1.3203125 5.6894531-5.8793945 5.0996094-9.6733398-.0566406-.4672852-.3320313-.8740234-.7763672-1.1289063l-4.0732422-2.2011719c-.1567383-.0839233-.328125-.1273193-.5019531-.1517944v-7.3770142c.0000003-1.8916016-1.5429684-3.4301758-3.4404294-3.4301758zm-11.4296879 19.0600586c-.7890625 0-1.4306641-.6411133-1.4306641-1.4296875v-10.8603516c0-.3957562.1666682-.7424293.4238281-.9985352l3.4052734-3.3657227c.2825566-.269606.5959192-.4057616.991211-.4057616h8.0400391c.7939453 0 1.4404297.6416016 1.4404297 1.4301758v8.1049805l-2.9931641 1.6235352c-.4327831.2316656-.7544889.6748877-.78125 1.1640625.0000229.1087608-.2934256 2.4173737.4589844 4.7373047h-9.5546875zm18.2753911-4.2587891c.2128906 1.6362305.3710938 5.8823242-3.4257813 7.1523438-2.3236046-.7745342-3.4299917-2.6631927-3.7358398-5.1030273-.1057129-.8641357-.0830078-1.6193237-.0522461-2.059082l3.5927734-1.9472656z"></path><path d="m14.2087669 10.296875c0-.5522461-.4472656-1-1-1h-5.9257817c-.5527344 0-1 .4477539-1 1s.4472656 1 1 1h5.9257817c.5527344 0 1-.4477539 1-1z"></path><path d="m10.2458763 13.8857422h-2.9628911c-.5527344 0-1 .4477539-1 1s.4472656 1 1 1h2.9628911c.5527344 0 1-.4477539 1-1s-.4472656-1-1-1z"></path></g></svg>