<!-- icon666.com - MILLIONS vector ICONS FREE --><svg id="svg8" viewBox="0 0 32 32" xmlns="http://www.w3.org/2000/svg" xmlns:svg="http://www.w3.org/2000/svg"><g id="layer1" transform="translate(-33.022 -30.617)"><path id="rect19487" d="m43.432 40.022c-.552-.002-1.001.443-1.004.996-.002.552.443 1.002.996 1.004h.008c.552-.002.998-.451.996-1.003 0 0 0 0 0-.001-.001-.549-.446-.994-.996-.996z"></path><path id="rect23116" d="m38.018 32.619c-1.645 0-2.996 1.352-2.996 2.996v4.002c.002.552.452.998 1.004.996.549-.002.994-.447.996-.996v-4.002c0-.571.425-.996.996-.996h4.002c.552.002 1.002-.444 1.004-.996 0-.003 0-.005 0-.008-.002-.552-.452-.998-1.004-.996zm18.006 0c-.553-.003-1.002.442-1.006.994v.002c-.002.552.443 1.002.996 1.004h.01 4c.571 0 .996.425.996.996v4.002c.002.552.451.998 1.004.996.549-.002.994-.447.996-.996v-4.002c0-1.645-1.352-2.996-2.996-2.996zm-14.004 3.994c-1.645 0-2.998 1.359-2.998 3.004v2.813c0 1.645 1.354 2.996 2.998 2.996h2.82c1.645 0 2.996-1.352 2.996-2.996v-2.813c0-1.645-1.352-3.004-2.996-3.004zm11.183 0c-1.646 0-2.998 1.359-2.998 3.004v2.813c0 1.645 1.354 2.996 2.998 2.996h2.813c1.645 0 3.004-1.352 3.004-2.996v-2.813c0-1.645-1.359-3.004-3.004-3.004zm-11.183 2h2.82c.571 0 .996.433.996 1.004v2.813c0 .571-.425 1.004-.996 1.004h-2.82c-.571 0-.996-.434-.996-1.004v-2.813c0-.571.424-1.004.996-1.004zm11.183 0h2.813c.571 0 1.004.433 1.004 1.004v2.813c0 .571-.433 1.004-1.004 1.004h-2.813c-.571 0-.998-.434-.998-1.004v-2.813c0-.571.427-1.004.998-1.004zm-11.183 9.189c-1.645 0-2.998 1.354-2.998 2.998v2.813c0 1.645 1.354 3.004 2.998 3.004h2.82c1.645 0 2.996-1.359 2.996-3.004v-2.813c0-1.646-1.352-2.998-2.996-2.998zm11.183 0c-1.646 0-2.998 1.354-2.998 2.998v.813c.002.549.447.994.996.996.553.002 1.002-.443 1.004-.996v-.813c0-.571.427-.996.998-.996h2.813c.571 0 1.004.425 1.004.996v4.813c-.002.553.443 1.002.996 1.004.553.002 1.002-.443 1.004-.996 0-.003 0-.005 0-.008v-4.813c0-1.646-1.359-2.998-3.004-2.998zm-11.183 2.002h2.82c.571 0 .996.425.996.996v2.813c0 .571-.425 1.004-.996 1.004h-2.82c-.571 0-.996-.433-.996-1.004v-2.813c0-.571.424-.996.996-.996zm12.594 1.405c-.553-.002-1.002.443-1.004.995v.001c-.002.553.443 1.002.996 1.004h.008c.554-.002.998-.451.996-1.003 0-.001 0-.001 0-.001-.002-.549-.448-.994-.996-.996zm-18.588 1.408c-.552-.002-1.002.443-1.004.996v.008 3.992c0 1.645 1.353 3.006 2.996 3.006h4.002c.552.002 1.002-.443 1.004-.996 0-.003 0-.005 0-.008-.001-.553-.45-.999-1.002-.998 0 0-.001 0-.002 0h-4.002c-.571 0-.996-.433-.996-1.004v-3.992c.002-.553-.444-1.002-.996-1.004zm25.998 0c-.553-.002-1.002.443-1.004.996v.008 3.992c0 .571-.425 1.004-.996 1.004h-4c-.553-.003-1.002.441-1.006.994v.004c-.002.553.443 1.002.996 1.004h.01 4c1.646 0 2.996-1.361 2.996-3.006v-3.992c.002-.553-.444-1.002-.996-1.004zm-10.823 2c-.549.002-.994.447-.996.996-.002.553.442 1.002.996 1.004h2.813c.553.002 1.002-.443 1.004-.996 0-.003 0-.005 0-.008-.002-.553-.451-.998-1.004-.996z"></path><path id="path23157" d="m54.614 40.022c-.552-.002-1 .443-1.004.996-.002.552.443 1.002.996 1.004h.008c.554-.002.998-.451.996-1.003 0 0 0 0 0-.001-.002-.549-.448-.994-.996-.996z"></path><path id="path23159" d="m43.432 51.209c-.552-.003-1.001.443-1.004.995v.001c-.002.553.443 1.001.996 1.004h.008c.552-.002.998-.451.996-1.004-.001-.55-.446-.994-.996-.996z"></path></g></svg>