<!-- icon666.com - MILLIONS vector ICONS FREE --><svg xmlns="http://www.w3.org/2000/svg" id="Layer_2" data-name="Layer 2" viewBox="0 0 64 64"><path d="M32,31.17969a7.30576,7.30576,0,1,0-7.05664-7.30176A7.19033,7.19033,0,0,0,32,31.17969Zm0-11.603a4.30891,4.30891,0,1,1-4.05664,4.30127A4.18918,4.18918,0,0,1,32,19.57666Z"></path><path d="M23.45264,30.21582A17.81727,17.81727,0,0,0,14.55127,42.959a3.86159,3.86159,0,0,0,.86621,3.1294,3.76816,3.76816,0,0,0,2.874,1.335h27.417a3.76816,3.76816,0,0,0,2.874-1.335,3.86159,3.86159,0,0,0,.86621-3.1294,17.81727,17.81727,0,0,0-8.90137-12.74316,1.50109,1.50109,0,0,0-1.82226.27783,9.232,9.232,0,0,1-13.4502,0A1.50057,1.50057,0,0,0,23.45264,30.21582ZM32,36.40088a12.3095,12.3095,0,0,0,8.01709-2.998,14.83779,14.83779,0,0,1,6.4707,10.04151.86436.86436,0,0,1-.1914.70166.76692.76692,0,0,1-.58789.27734H18.2915a.76692.76692,0,0,1-.58789-.27734.86436.86436,0,0,1-.1914-.70166,14.83779,14.83779,0,0,1,6.4707-10.04151A12.3095,12.3095,0,0,0,32,36.40088Z"></path><path d="M7,15.75293a8.3602,8.3602,0,0,1,8.355-8.34668h6.29736v-3H15.355A11.36379,11.36379,0,0,0,4,15.75293v5.9082H7Z"></path><path d="M57,48.24707a8.3602,8.3602,0,0,1-8.355,8.34668H42.34766v3H48.645A11.36379,11.36379,0,0,0,60,48.24707v-5.9082H57Z"></path><path d="M15.355,59.59375h6.29736v-3H15.355A8.3602,8.3602,0,0,1,7,48.24707v-5.9082H4v5.9082A11.36379,11.36379,0,0,0,15.355,59.59375Z"></path><path d="M48.645,4.40625H42.34766v3H48.645A8.3602,8.3602,0,0,1,57,15.75293v5.9082h3v-5.9082A11.36379,11.36379,0,0,0,48.645,4.40625Z"></path></svg>