<!-- icon666.com - MILLIONS vector ICONS FREE --><svg clip-rule="evenodd" fill-rule="evenodd" stroke-linejoin="round" stroke-miterlimit="2" viewBox="0 0 64 64" xmlns="http://www.w3.org/2000/svg" xmlns:serif="http://www.serif.com/"><circle cx="32" cy="24.385" r="4"></circle><path d="m12.201 4.586c-5.251 5.251-8.201 12.373-8.201 19.799s2.95 14.548 8.201 19.799c.781.78 2.048.78 2.828 0 .781-.781.781-2.048 0-2.829-4.5-4.501-7.029-10.605-7.029-16.97s2.529-12.47 7.029-16.971c.781-.78.781-2.048 0-2.828-.78-.781-2.047-.781-2.828 0z"></path><path d="m17.858 10.243c-3.751 3.75-5.858 8.837-5.858 14.142 0 5.304 2.107 10.391 5.858 14.142.78.78 2.048.78 2.828 0 .781-.781.781-2.048 0-2.829-3-3-4.686-7.07-4.686-11.313 0-4.244 1.686-8.313 4.686-11.314.781-.78.781-2.048 0-2.828-.78-.781-2.048-.781-2.828 0z"></path><path d="m23.515 15.899c-2.251 2.251-3.515 5.303-3.515 8.486 0 3.182 1.264 6.235 3.515 8.485.78.781 2.048.781 2.828 0 .781-.78.781-2.048 0-2.828-1.5-1.501-2.343-3.535-2.343-5.657s.843-4.157 2.343-5.657c.781-.781.781-2.048 0-2.829-.78-.78-2.048-.78-2.828 0z"></path><path d="m48.971 7.414c4.5 4.501 7.029 10.606 7.029 16.971s-2.529 12.469-7.029 16.97c-.781.781-.781 2.048 0 2.829.78.78 2.047.78 2.828 0 5.251-5.251 8.201-12.373 8.201-19.799s-2.95-14.548-8.201-19.799c-.781-.781-2.048-.781-2.828 0-.781.78-.781 2.048 0 2.828z"></path><path d="m43.314 13.071c3 3.001 4.686 7.07 4.686 11.314 0 4.243-1.686 8.313-4.686 11.313-.781.781-.781 2.048 0 2.829.78.78 2.048.78 2.828 0 3.751-3.751 5.858-8.838 5.858-14.142 0-5.305-2.107-10.392-5.858-14.142-.78-.781-2.048-.781-2.828 0-.781.78-.781 2.048 0 2.828z"></path><path d="m37.657 18.728c1.5 1.5 2.343 3.535 2.343 5.657s-.843 4.156-2.343 5.657c-.781.78-.781 2.048 0 2.828.78.781 2.048.781 2.828 0 2.251-2.25 3.515-5.303 3.515-8.485 0-3.183-1.264-6.235-3.515-8.486-.78-.78-2.048-.78-2.828 0-.781.781-.781 2.048 0 2.829z"></path><path d="m30.03 23.652-6 34c-.191 1.087.535 2.126 1.622 2.318 1.087.191 2.126-.535 2.318-1.622l6-34c.191-1.087-.535-2.126-1.622-2.318-1.087-.191-2.126.535-2.318 1.622z"></path><path d="m30.03 24.348 6 34c.192 1.087 1.231 1.813 2.318 1.622 1.087-.192 1.813-1.231 1.622-2.318l-6-34c-.192-1.087-1.231-1.813-2.318-1.622-1.087.192-1.813 1.231-1.622 2.318z"></path><path d="m28 56h1c1.104 0 2-.896 2-2s-.896-2-2-2h-1c-1.104 0-2 .896-2 2s.896 2 2 2z"></path></svg>