<!-- icon666.com - MILLIONS vector ICONS FREE --><svg xmlns="http://www.w3.org/2000/svg" viewBox="0 0 32 32"><g id="user_info" data-name="user info"><path d="M26.2,6H5.8A2.8,2.8,0,0,0,3,8.8V23.2A2.8,2.8,0,0,0,5.8,26H26.2A2.8,2.8,0,0,0,29,23.2V8.8A2.8,2.8,0,0,0,26.2,6ZM27,23.2a.8.8,0,0,1-.8.8H5.8a.8.8,0,0,1-.8-.8V8.8A.8.8,0,0,1,5.8,8H26.2a.8.8,0,0,1,.8.8Z"></path><path d="M23.38,15.8A3,3,0,0,0,24,14a3,3,0,0,0-6,0,3,3,0,0,0,.62,1.8A4,4,0,0,0,17,19v1a1,1,0,0,0,1,1h6a1,1,0,0,0,1-1V19A4,4,0,0,0,23.38,15.8ZM20,14a1,1,0,1,1,1,1A1,1,0,0,1,20,14Zm-1,5a2,2,0,0,1,4,0Z"></path><path d="M14,12H8a1,1,0,0,0,0,2h6a1,1,0,0,0,0-2Z"></path><path d="M14,18H8a1,1,0,0,0,0,2h6a1,1,0,0,0,0-2Z"></path></g></svg>